<?xml version="1.0" encoding="UTF-8" standalone="no"?>
<svg
   xmlns:dc="http://purl.org/dc/elements/1.1/"
   xmlns:cc="http://creativecommons.org/ns#"
   xmlns:rdf="http://www.w3.org/1999/02/22-rdf-syntax-ns#"
   xmlns:svg="http://www.w3.org/2000/svg"
   xmlns="http://www.w3.org/2000/svg"
   xmlns:sodipodi="http://sodipodi.sourceforge.net/DTD/sodipodi-0.dtd"
   xmlns:inkscape="http://www.inkscape.org/namespaces/inkscape"
   width="598.01373"
   height="548.84662"
   viewBox="187 76 671.99996 616.74992"
   version="1.1"
   id="svg4075"
   sodipodi:docname="architecture.svg"
   inkscape:version="0.92.3 (2405546, 2018-03-11)">
  <metadata
     id="metadata4081">
    <rdf:RDF>
      <cc:Work
         rdf:about="">
        <dc:format>image/svg+xml</dc:format>
        <dc:type
           rdf:resource="http://purl.org/dc/dcmitype/StillImage" />
        <dc:title></dc:title>
      </cc:Work>
    </rdf:RDF>
  </metadata>
  <defs
     id="defs4079" />
  <sodipodi:namedview
     pagecolor="#ffffff"
     bordercolor="#666666"
     borderopacity="1"
     objecttolerance="10"
     gridtolerance="10"
     guidetolerance="10"
     inkscape:pageopacity="0"
     inkscape:pageshadow="2"
     inkscape:window-width="1920"
     inkscape:window-height="1029"
     id="namedview4077"
     showgrid="false"
     units="px"
     scale-x="1.12372"
     fit-margin-top="0"
     fit-margin-left="0"
     fit-margin-right="0"
     fit-margin-bottom="0"
     inkscape:zoom="0.72120296"
     inkscape:cx="641.13794"
     inkscape:cy="-26.473861"
     inkscape:window-x="0"
     inkscape:window-y="0"
     inkscape:window-maximized="1"
     inkscape:current-layer="svg4075" />
  <g
     id="g3931"
     transform="translate(-1,-0.25)">
    <path
       style="fill:#a5a585"
       d="m 507.513,281.4 -0.08,-1.031 -0.226,-1.015 -0.387,-1.015 -0.531,-0.999 -0.661,-0.999 -0.822,-0.983 -0.966,-0.967 -1.112,-0.95 -1.257,-0.935 -1.385,-0.886 -1.515,-0.886 -1.627,-0.87 -1.789,-0.822 -1.885,-0.789 -1.998,-0.758 -2.127,-0.725 -2.207,-0.676 -2.32,-0.645 -2.401,-0.596 -2.513,-0.564 -2.562,-0.532 -2.659,-0.467 -2.723,-0.451 -2.755,-0.371 -2.836,-0.322 -2.884,-0.274 -2.9,-0.241 -2.948,-0.162 -2.965,-0.145 -2.981,-0.096 h -2.981 v 0 h -2.997 l -2.98,0.096 -2.965,0.145 -2.948,0.162 -2.901,0.241 -2.884,0.274 -2.819,0.322 -2.772,0.371 -2.723,0.451 -2.658,0.467 -2.562,0.532 -2.497,0.564 -2.401,0.596 -2.32,0.645 -2.224,0.676 -2.127,0.725 -1.981,0.758 -1.902,0.789 -1.772,0.822 -1.643,0.87 -1.515,0.886 -1.386,0.886 -1.256,0.935 -1.112,0.95 -0.967,0.967 -0.821,0.983 -0.661,0.999 -0.532,0.999 -0.386,1.015 -0.21,1.015 -0.081,1.031 v 0 l 0.081,1.031 0.21,0.999 0.386,1.032 0.532,0.999 0.661,0.998 0.821,0.983 0.967,0.967 1.112,0.951 1.256,0.918 1.386,0.902 1.515,0.887 1.643,0.87 1.772,0.821 1.902,0.79 1.981,0.757 2.127,0.725 2.224,0.677 2.32,0.644 2.401,0.596 2.497,0.564 2.562,0.532 2.658,0.467 2.723,0.435 2.772,0.387 2.819,0.322 2.884,0.274 2.901,0.226 2.948,0.177 2.965,0.129 2.98,0.097 2.997,0.016 v 0 l 2.981,-0.016 2.981,-0.097 2.965,-0.129 2.948,-0.177 2.9,-0.226 2.884,-0.274 2.836,-0.322 2.755,-0.387 2.723,-0.435 2.659,-0.467 2.562,-0.532 2.513,-0.564 2.401,-0.596 2.32,-0.644 2.207,-0.677 2.127,-0.725 1.998,-0.757 1.885,-0.79 1.789,-0.821 1.627,-0.87 1.515,-0.887 1.385,-0.902 1.257,-0.918 1.112,-0.951 0.966,-0.967 0.822,-0.983 0.661,-0.998 0.531,-0.999 0.387,-1.032 0.226,-0.999 z"
       id="path3917"
       inkscape:connector-curvature="0" />
    <path
       style="fill:none;fill-opacity:0;stroke:#494936;stroke-width:0.02"
       d="m 506.82,281.078 -0.08,-1.031 -0.21,-0.983 -0.37,-0.999 -0.516,-0.983 -0.693,-0.999 -0.837,-0.95 -0.919,-0.967 -1.128,-0.902 -1.24,-0.919 -1.37,-0.902 -1.514,-0.854 -1.628,-0.854 -1.756,-0.806 -1.853,-0.805 -2.03,-0.725 -2.111,-0.709 -2.207,-0.677 -2.288,-0.628 -2.385,-0.58 -2.481,-0.564 -2.578,-0.5 -2.626,-0.467 -2.707,-0.435 -2.739,-0.371 -2.804,-0.322 -2.884,-0.258 -2.884,-0.257 -2.932,-0.145 -2.933,-0.129 -2.996,-0.081 -2.965,-0.048 v 0 l -2.965,0.048 -2.964,0.081 -2.965,0.129 -2.9,0.145 -2.9,0.257 -2.868,0.258 -2.82,0.322 -2.755,0.371 -2.691,0.435 -2.626,0.467 -2.578,0.5 -2.481,0.564 -2.369,0.58 -2.32,0.628 -2.224,0.677 -2.094,0.709 -1.998,0.725 -1.853,0.805 -1.772,0.806 -1.644,0.854 -1.482,0.854 -1.37,0.902 -1.273,0.919 -1.095,0.902 -0.951,0.967 -0.821,0.95 -0.677,0.999 -0.532,0.983 -0.37,0.999 -0.21,0.983 -0.081,1.031 v 0 l 0.081,0.999 0.21,0.983 0.37,1.015 0.532,0.983 0.677,0.983 0.821,0.966 0.951,0.951 1.095,0.918 1.273,0.903 1.37,0.918 1.482,0.87 1.644,0.822 1.772,0.821 1.853,0.79 1.998,0.741 2.094,0.709 2.224,0.661 2.32,0.644 2.369,0.58 2.481,0.564 2.578,0.516 2.626,0.451 2.691,0.419 2.755,0.37 2.82,0.323 2.868,0.274 2.9,0.241 2.9,0.161 2.965,0.129 2.964,0.081 2.965,0.032 v 0 l 2.965,-0.032 2.996,-0.081 2.933,-0.129 2.932,-0.161 2.884,-0.241 2.884,-0.274 2.804,-0.323 2.739,-0.37 2.707,-0.419 2.626,-0.451 2.578,-0.516 2.481,-0.564 2.385,-0.58 2.288,-0.644 2.207,-0.661 2.111,-0.709 2.03,-0.741 1.853,-0.79 1.756,-0.821 1.628,-0.822 1.514,-0.87 1.37,-0.918 1.24,-0.903 1.128,-0.918 0.919,-0.951 0.837,-0.966 0.693,-0.983 0.516,-0.983 0.37,-1.015 0.21,-0.983 0.08,-0.999"
       id="path3919"
       inkscape:connector-curvature="0" />
    <path
       style="fill:#a5a585"
       d="m 389.507,239.267 v 42.488 H 506.82 v -42.488 z"
       id="path3921"
       inkscape:connector-curvature="0" />
    <path
       style="fill:#c9c9b6"
       d="m 507.513,238.912 -0.08,-1.047 -0.226,-1.015 -0.387,-0.999 -0.531,-0.999 -0.661,-1.015 -0.822,-0.983 -0.966,-0.983 -1.112,-0.918 -1.257,-0.918 -1.385,-0.935 -1.515,-0.854 -1.627,-0.87 -1.789,-0.838 -1.885,-0.773 -1.998,-0.757 -2.127,-0.742 -2.207,-0.676 -2.32,-0.629 -2.401,-0.612 -2.513,-0.564 -2.562,-0.515 -2.659,-0.468 -2.723,-0.435 -2.755,-0.386 -2.836,-0.323 -2.884,-0.274 -2.9,-0.225 -2.948,-0.177 -2.965,-0.145 -2.981,-0.081 -2.981,-0.016 v 0 l -2.997,0.016 -2.98,0.081 -2.965,0.145 -2.948,0.177 -2.901,0.225 -2.884,0.274 -2.819,0.323 -2.772,0.386 -2.723,0.435 -2.658,0.468 -2.562,0.515 -2.497,0.564 -2.401,0.612 -2.32,0.629 -2.224,0.676 -2.127,0.742 -1.981,0.757 -1.902,0.773 -1.772,0.838 -1.643,0.87 -1.515,0.854 -1.386,0.935 -1.256,0.918 -1.112,0.918 -0.967,0.983 -0.821,0.983 -0.661,1.015 -0.532,0.999 -0.386,0.999 -0.21,1.015 -0.081,1.047 v 0 l 0.081,1.015 0.21,1.032 0.386,0.982 0.532,1.032 0.661,0.982 0.821,0.999 0.967,0.967 1.112,0.935 1.256,0.934 1.386,0.902 1.515,0.887 1.643,0.854 1.772,0.821 1.902,0.79 1.981,0.773 2.127,0.709 2.224,0.693 2.32,0.644 2.401,0.597 2.497,0.564 2.562,0.531 2.658,0.451 2.723,0.452 2.772,0.37 2.819,0.322 2.884,0.29 2.901,0.21 2.948,0.193 2.965,0.129 2.98,0.081 2.997,0.032 v 0 l 2.981,-0.032 2.981,-0.081 2.965,-0.129 2.948,-0.193 2.9,-0.21 2.884,-0.29 2.836,-0.322 2.755,-0.37 2.723,-0.452 2.659,-0.451 2.562,-0.531 2.513,-0.564 2.401,-0.597 2.32,-0.644 2.207,-0.693 2.127,-0.709 1.998,-0.773 1.885,-0.79 1.789,-0.821 1.627,-0.854 1.515,-0.887 1.385,-0.902 1.257,-0.934 1.112,-0.935 0.966,-0.967 0.822,-0.999 0.661,-0.982 0.531,-1.032 0.387,-0.982 0.226,-1.032 z"
       id="path3923"
       inkscape:connector-curvature="0" />
    <path
       style="fill:none;fill-opacity:0;stroke:#494936;stroke-width:0.02"
       d="m 506.82,238.59 -0.08,-1.031 -0.21,-0.983 -0.37,-0.983 -0.516,-0.999 -0.693,-1.015 -0.837,-0.95 -0.919,-0.919 -1.128,-0.95 -1.24,-0.903 -1.37,-0.918 -1.514,-0.838 -1.628,-0.854 -1.756,-0.822 -1.853,-0.757 -2.03,-0.757 -2.111,-0.693 -2.207,-0.677 -2.288,-0.644 -2.385,-0.596 -2.481,-0.548 -2.578,-0.5 -2.626,-0.467 -2.707,-0.419 -2.739,-0.386 -2.804,-0.323 -2.884,-0.274 -2.884,-0.225 -2.932,-0.177 -0.983,-0.049 h -15.822 l -0.983,0.049 -2.9,0.177 -2.9,0.225 -2.868,0.274 -2.82,0.323 -2.755,0.386 -2.691,0.419 -2.626,0.467 -2.578,0.5 -2.481,0.548 -2.369,0.596 -2.32,0.644 -2.224,0.677 -2.094,0.693 -1.998,0.757 -1.853,0.757 -1.772,0.822 -1.644,0.854 -1.482,0.838 -1.37,0.918 -1.273,0.903 -1.095,0.95 -0.951,0.919 -0.821,0.95 -0.677,1.015 -0.532,0.999 -0.37,0.983 -0.21,0.983 -0.081,1.031 v 0 l 0.081,0.983 0.21,1.015 0.37,0.999 0.532,0.983 0.677,0.983 0.821,0.966 0.951,0.935 1.095,0.951 1.273,0.902 1.37,0.902 1.482,0.87 1.644,0.822 1.772,0.805 1.853,0.806 1.998,0.741 2.094,0.693 2.224,0.661 2.32,0.644 2.369,0.58 2.481,0.564 2.578,0.532 2.626,0.419 2.691,0.451 2.755,0.354 2.82,0.339 2.868,0.29 2.9,0.225 2.9,0.178 2.965,0.112 2.964,0.065 2.965,0.048 v 0 l 2.965,-0.048 2.996,-0.065 2.933,-0.112 2.932,-0.178 2.884,-0.225 2.884,-0.29 2.804,-0.339 2.739,-0.354 2.707,-0.451 2.626,-0.419 2.578,-0.532 2.481,-0.564 2.385,-0.58 2.288,-0.644 2.207,-0.661 2.111,-0.693 2.03,-0.741 1.853,-0.806 1.756,-0.805 1.628,-0.822 1.514,-0.87 1.37,-0.902 1.24,-0.902 1.128,-0.951 0.919,-0.935 0.837,-0.966 0.693,-0.983 0.516,-0.983 0.37,-0.999 0.21,-1.015 0.08,-0.983"
       id="path3925"
       inkscape:connector-curvature="0" />
    <path
       style="fill:none;fill-opacity:0;stroke:#000000;stroke-width:0.02"
       d="m 389.507,238.59 v 42.456"
       id="path3927"
       inkscape:connector-curvature="0" />
    <path
       style="fill:none;fill-opacity:0;stroke:#000000;stroke-width:0.02"
       d="m 506.82,238.59 v 42.456"
       id="path3929"
       inkscape:connector-curvature="0" />
  </g>
  <g
     id="g3947"
     transform="translate(-1,-0.25)">
    <path
       style="fill:#a5a585"
       d="m 669.116,460.17 -0.081,-1.031 -0.225,-1.015 -0.387,-1.015 -0.532,-0.999 -0.66,-0.999 -0.822,-0.983 -0.967,-0.966 -1.112,-0.951 -1.256,-0.935 -1.386,-0.886 -1.515,-0.886 -1.627,-0.87 -1.788,-0.822 -1.885,-0.789 -1.998,-0.757 -2.127,-0.726 -2.208,-0.676 -2.32,-0.645 -2.4,-0.596 -2.514,-0.564 -2.562,-0.532 -2.658,-0.467 -2.723,-0.451 -2.755,-0.37 -2.836,-0.323 -2.884,-0.274 -2.9,-0.241 -2.949,-0.161 -2.965,-0.145 -2.98,-0.097 h -2.981 v 0 h -2.997 l -2.981,0.097 -2.964,0.145 -2.949,0.161 -2.9,0.241 -2.884,0.274 -2.82,0.323 -2.771,0.37 -2.723,0.451 -2.659,0.467 -2.561,0.532 -2.498,0.564 -2.401,0.596 -2.32,0.645 -2.223,0.676 -2.127,0.726 -1.982,0.757 -1.901,0.789 -1.772,0.822 -1.644,0.87 -1.514,0.886 -1.386,0.886 -1.257,0.935 -1.112,0.951 -0.966,0.966 -0.822,0.983 -0.661,0.999 -0.531,0.999 -0.387,1.015 -0.209,1.015 -0.081,1.031 v 0 l 0.081,1.032 0.209,0.998 0.387,1.032 0.531,0.999 0.661,0.999 0.822,0.982 0.966,0.967 1.112,0.951 1.257,0.918 1.386,0.902 1.514,0.887 1.644,0.87 1.772,0.821 1.901,0.79 1.982,0.757 2.127,0.725 2.223,0.677 2.32,0.644 2.401,0.597 2.498,0.563 2.561,0.532 2.659,0.467 2.723,0.435 2.771,0.387 2.82,0.322 2.884,0.274 2.9,0.226 2.949,0.177 2.964,0.129 2.981,0.097 2.997,0.016 v 0 l 2.981,-0.016 2.98,-0.097 2.965,-0.129 2.949,-0.177 2.9,-0.226 2.884,-0.274 2.836,-0.322 2.755,-0.387 2.723,-0.435 2.658,-0.467 2.562,-0.532 2.514,-0.563 2.4,-0.597 2.32,-0.644 2.208,-0.677 2.127,-0.725 1.998,-0.757 1.885,-0.79 1.788,-0.821 1.627,-0.87 1.515,-0.887 1.386,-0.902 1.256,-0.918 1.112,-0.951 0.967,-0.967 0.822,-0.982 0.66,-0.999 0.532,-0.999 0.387,-1.032 0.225,-0.998 z"
       id="path3933"
       inkscape:connector-curvature="0" />
    <path
       style="fill:none;fill-opacity:0;stroke:#494936;stroke-width:0.02"
       d="m 668.423,459.848 -0.081,-1.031 -0.209,-0.983 -0.371,-0.999 -0.515,-0.983 -0.693,-0.999 -0.838,-0.95 -0.918,-0.967 -1.128,-0.902 -1.241,-0.919 -1.369,-0.902 -1.515,-0.854 -1.627,-0.854 -1.756,-0.806 -1.853,-0.805 -2.031,-0.725 -2.11,-0.709 -2.208,-0.677 -2.288,-0.628 -2.384,-0.58 -2.481,-0.564 -2.578,-0.5 -2.627,-0.467 -2.706,-0.435 -2.74,-0.37 -2.803,-0.323 -2.884,-0.258 -2.884,-0.257 -2.933,-0.145 -2.932,-0.129 -2.997,-0.081 -2.965,-0.048 v 0 l -2.964,0.048 -2.965,0.081 -2.965,0.129 -2.9,0.145 -2.9,0.257 -2.868,0.258 -2.82,0.323 -2.755,0.37 -2.69,0.435 -2.627,0.467 -2.578,0.5 -2.481,0.564 -2.368,0.58 -2.321,0.628 -2.223,0.677 -2.095,0.709 -1.998,0.725 -1.853,0.805 -1.772,0.806 -1.643,0.854 -1.483,0.854 -1.369,0.902 -1.273,0.919 -1.096,0.902 -0.95,0.967 -0.822,0.95 -0.677,0.999 -0.531,0.983 -0.371,0.999 -0.209,0.983 -0.081,1.031 v 0 l 0.081,0.999 0.209,0.983 0.371,1.015 0.531,0.983 0.677,0.983 0.822,0.966 0.95,0.951 1.096,0.918 1.273,0.903 1.369,0.918 1.483,0.87 1.643,0.822 1.772,0.822 1.853,0.789 1.998,0.741 2.095,0.709 2.223,0.661 2.321,0.644 2.368,0.58 2.481,0.564 2.578,0.516 2.627,0.451 2.69,0.419 2.755,0.37 2.82,0.323 2.868,0.274 2.9,0.241 2.9,0.161 2.965,0.129 2.965,0.081 2.964,0.032 v 0 l 2.965,-0.032 2.997,-0.081 2.932,-0.129 2.933,-0.161 2.884,-0.241 2.884,-0.274 2.803,-0.323 2.74,-0.37 2.706,-0.419 2.627,-0.451 2.578,-0.516 2.481,-0.564 2.384,-0.58 2.288,-0.644 2.208,-0.661 2.11,-0.709 2.031,-0.741 1.853,-0.789 1.756,-0.822 1.627,-0.822 1.515,-0.87 1.369,-0.918 1.241,-0.903 1.128,-0.918 0.918,-0.951 0.838,-0.966 0.693,-0.983 0.515,-0.983 0.371,-1.015 0.209,-0.983 0.081,-0.999"
       id="path3935"
       inkscape:connector-curvature="0" />
    <path
       style="fill:#a5a585"
       d="m 551.11,418.037 v 42.488 h 117.313 v -42.488 z"
       id="path3937"
       inkscape:connector-curvature="0" />
    <path
       style="fill:#c9c9b6"
       d="m 669.116,417.682 -0.081,-1.047 -0.225,-1.015 -0.387,-0.999 -0.532,-0.999 -0.66,-1.015 -0.822,-0.983 -0.967,-0.983 -1.112,-0.918 -1.256,-0.918 -1.386,-0.935 -1.515,-0.854 -1.627,-0.87 -1.788,-0.838 -1.885,-0.773 -1.998,-0.757 -2.127,-0.742 -2.208,-0.676 -2.32,-0.629 -2.4,-0.612 -2.514,-0.564 -2.562,-0.515 -2.658,-0.468 -2.723,-0.435 -2.755,-0.386 -2.836,-0.323 -2.884,-0.274 -2.9,-0.225 -2.949,-0.177 -2.965,-0.145 -2.98,-0.081 -2.981,-0.016 v 0 l -2.997,0.016 -2.981,0.081 -2.964,0.145 -2.949,0.177 -2.9,0.225 -2.884,0.274 -2.82,0.323 -2.771,0.386 -2.723,0.435 -2.659,0.468 -2.561,0.515 -2.498,0.564 -2.401,0.612 -2.32,0.629 -2.223,0.676 -2.127,0.742 -1.982,0.757 -1.901,0.773 -1.772,0.838 -1.644,0.87 -1.514,0.854 -1.386,0.935 -1.257,0.918 -1.112,0.918 -0.966,0.983 -0.822,0.983 -0.661,1.015 -0.531,0.999 -0.387,0.999 -0.209,1.015 -0.081,1.047 v 0 l 0.081,1.016 0.209,1.031 0.387,0.983 0.531,1.031 0.661,0.983 0.822,0.999 0.966,0.966 1.112,0.935 1.257,0.934 1.386,0.903 1.514,0.886 1.644,0.854 1.772,0.821 1.901,0.79 1.982,0.773 2.127,0.709 2.223,0.693 2.32,0.645 2.401,0.596 2.498,0.564 2.561,0.531 2.659,0.451 2.723,0.452 2.771,0.37 2.82,0.322 2.884,0.29 2.9,0.21 2.949,0.193 2.964,0.129 2.981,0.081 2.997,0.032 v 0 l 2.981,-0.032 2.98,-0.081 2.965,-0.129 2.949,-0.193 2.9,-0.21 2.884,-0.29 2.836,-0.322 2.755,-0.37 2.723,-0.452 2.658,-0.451 2.562,-0.531 2.514,-0.564 2.4,-0.596 2.32,-0.645 2.208,-0.693 2.127,-0.709 1.998,-0.773 1.885,-0.79 1.788,-0.821 1.627,-0.854 1.515,-0.886 1.386,-0.903 1.256,-0.934 1.112,-0.935 0.967,-0.966 0.822,-0.999 0.66,-0.983 0.532,-1.031 0.387,-0.983 0.225,-1.031 z"
       id="path3939"
       inkscape:connector-curvature="0" />
    <path
       style="fill:none;fill-opacity:0;stroke:#494936;stroke-width:0.02"
       d="m 668.423,417.36 -0.081,-1.031 -0.209,-0.983 -0.371,-0.983 -0.515,-0.999 -0.693,-1.015 -0.838,-0.95 -0.918,-0.919 -1.128,-0.95 -1.241,-0.903 -1.369,-0.918 -1.515,-0.838 -1.627,-0.854 -1.756,-0.821 -1.853,-0.758 -2.031,-0.757 -2.11,-0.693 -2.208,-0.677 -2.288,-0.644 -2.384,-0.596 -2.481,-0.548 -2.578,-0.499 -2.627,-0.468 -2.706,-0.419 -2.74,-0.386 -2.803,-0.323 -2.884,-0.274 -2.884,-0.225 -2.933,-0.177 -0.983,-0.049 h -15.822 l -0.983,0.049 -2.9,0.177 -2.9,0.225 -2.868,0.274 -2.82,0.323 -2.755,0.386 -2.69,0.419 -2.627,0.468 -2.578,0.499 -2.481,0.548 -2.368,0.596 -2.321,0.644 -2.223,0.677 -2.095,0.693 -1.998,0.757 -1.853,0.758 -1.772,0.821 -1.643,0.854 -1.483,0.838 -1.369,0.918 -1.273,0.903 -1.096,0.95 -0.95,0.919 -0.822,0.95 -0.677,1.015 -0.531,0.999 -0.371,0.983 -0.209,0.983 -0.081,1.031 v 0 l 0.081,0.983 0.209,1.015 0.371,0.999 0.531,0.983 0.677,0.983 0.822,0.967 0.95,0.934 1.096,0.951 1.273,0.902 1.369,0.902 1.483,0.87 1.643,0.822 1.772,0.806 1.853,0.805 1.998,0.741 2.095,0.693 2.223,0.661 2.321,0.644 2.368,0.58 2.481,0.564 2.578,0.532 2.627,0.419 2.69,0.451 2.755,0.354 2.82,0.339 2.868,0.29 2.9,0.225 2.9,0.178 2.965,0.112 2.965,0.065 2.964,0.048 v 0 l 2.965,-0.048 2.997,-0.065 2.932,-0.112 2.933,-0.178 2.884,-0.225 2.884,-0.29 2.803,-0.339 2.74,-0.354 2.706,-0.451 2.627,-0.419 2.578,-0.532 2.481,-0.564 2.384,-0.58 2.288,-0.644 2.208,-0.661 2.11,-0.693 2.031,-0.741 1.853,-0.805 1.756,-0.806 1.627,-0.822 1.515,-0.87 1.369,-0.902 1.241,-0.902 1.128,-0.951 0.918,-0.934 0.838,-0.967 0.693,-0.983 0.515,-0.983 0.371,-0.999 0.209,-1.015 0.081,-0.983"
       id="path3941"
       inkscape:connector-curvature="0" />
    <path
       style="fill:none;fill-opacity:0;stroke:#000000;stroke-width:0.02"
       d="m 551.11,417.36 v 42.456"
       id="path3943"
       inkscape:connector-curvature="0" />
    <path
       style="fill:none;fill-opacity:0;stroke:#000000;stroke-width:0.02"
       d="m 668.423,417.36 v 42.456"
       id="path3945"
       inkscape:connector-curvature="0" />
  </g>
  <g
     id="g3957"
     transform="translate(-1,-0.25)">
    <path
       style="fill:#90ee90"
       d="m 720.667,227 h 110.666 c 15.28,0 27.667,14.327 27.667,32 0,17.673 -12.387,32 -27.667,32 H 720.667 C 705.387,291 693,276.673 693,259 c 0,-17.673 12.387,-32 27.667,-32 z"
       id="path3949"
       inkscape:connector-curvature="0" />
    <path
       style="fill:none;fill-opacity:0;stroke:#000000;stroke-width:2"
       d="m 720.667,227 h 110.666 c 15.28,0 27.667,14.327 27.667,32 0,17.673 -12.387,32 -27.667,32 H 720.667 C 705.387,291 693,276.673 693,259 c 0,-17.673 12.387,-32 27.667,-32"
       id="path3951"
       inkscape:connector-curvature="0" />
    <text
       font-size="12.8"
       style="font-style:normal;font-weight:700;font-size:12.80000019px;font-family:monospace;text-anchor:middle;fill:#000000"
       x="776"
       y="263"
       id="text3955">
      <tspan
         x="776"
         y="263"
         id="tspan3953">ovn-northd</tspan>
    </text>
  </g>
  <g
     id="g3969"
     transform="translate(-1,-0.25)">
    <line
       style="fill:none;fill-opacity:0;stroke:#000000;stroke-width:2"
       x1="517.24902"
       y1="260.08801"
       x2="683.26398"
       y2="259.06"
       id="line3959" />
    <polygon
       style="fill:#000000"
       points="519.78,265.072 509.749,260.134 519.718,255.073 517.249,260.088 "
       id="polygon3961" />
    <polygon
       style="fill:none;fill-opacity:0;stroke:#000000;stroke-width:2"
       points="519.78,265.072 509.749,260.134 519.718,255.073 517.249,260.088 "
       id="polygon3963" />
    <polygon
       style="fill:#000000"
       points="680.733,254.076 690.764,259.014 680.795,264.076 683.264,259.06 "
       id="polygon3965" />
    <polygon
       style="fill:none;fill-opacity:0;stroke:#000000;stroke-width:2"
       points="680.733,254.076 690.764,259.014 680.795,264.076 683.264,259.06 "
       id="polygon3967" />
  </g>
  <text
     font-size="12.8"
     style="font-style:normal;font-weight:700;font-size:12.80000019px;font-family:monospace;text-anchor:start;fill:#000000"
     x="418"
     y="276.49991"
     id="text3973">
    <tspan
       x="418"
       y="276.49991"
       id="tspan3971">OVN NBDB</tspan>
  </text>
  <text
     font-size="12.8"
     style="font-style:normal;font-weight:700;font-size:12.80000019px;font-family:monospace;text-anchor:start;fill:#000000"
     x="584"
     y="458.49988"
     id="text3977">
    <tspan
       x="584"
       y="458.49988"
       id="tspan3975">OVN SBDB</tspan>
  </text>
  <g
     id="g3989"
     transform="translate(-1,-0.25)">
    <polyline
       style="fill:none;fill-opacity:0;stroke:#000000;stroke-width:2"
       points="776,300.736 776,344.255 609.984,344.255 609.984,387.774 "
       id="polyline3979" />
    <polygon
       style="fill:#000000"
       points="771,303.236 776,293.236 781,303.236 776,300.736 "
       id="polygon3981" />
    <polygon
       style="fill:none;fill-opacity:0;stroke:#000000;stroke-width:2"
       points="771,303.236 776,293.236 781,303.236 776,300.736 "
       id="polygon3983" />
    <polygon
       style="fill:#000000"
       points="614.984,385.274 609.984,395.274 604.984,385.274 609.984,387.774 "
       id="polygon3985" />
    <polygon
       style="fill:none;fill-opacity:0;stroke:#000000;stroke-width:2"
       points="614.984,385.274 609.984,395.274 604.984,385.274 609.984,387.774 "
       id="polygon3987" />
  </g>
  <text
     font-size="12.8"
     style="font-style:normal;font-weight:700;font-size:12.80000019px;font-family:monospace;text-anchor:start;fill:#000000"
     x="574.09998"
     y="252.90001"
     id="text3993">
    <tspan
       x="574.09998"
       y="252.90001"
       id="tspan3991">Ovs db</tspan>
  </text>
  <text
     font-size="12.8"
     style="font-style:normal;font-weight:700;font-size:12.80000019px;font-family:monospace;text-anchor:start;fill:#000000"
     x="672.09998"
     y="339.8999"
     id="text3997">
    <tspan
       x="672.09998"
       y="339.8999"
       id="tspan3995">Ovs db</tspan>
  </text>
  <g
     id="g4007"
     transform="translate(-1,-0.25)">
    <path
       style="fill:#ac0eff"
       d="m 393.767,77.25 h 110.666 c 15.28,0 27.667,14.3269 27.667,32 0,17.673 -12.387,32 -27.667,32 H 393.767 c -15.28,0 -27.667,-14.327 -27.667,-32 0,-17.6731 12.387,-32 27.667,-32 z"
       id="path3999"
       inkscape:connector-curvature="0" />
    <path
       style="fill:none;fill-opacity:0;stroke:#000000;stroke-width:2"
       d="m 393.767,77.25 h 110.666 c 15.28,0 27.667,14.3269 27.667,32 0,17.673 -12.387,32 -27.667,32 H 393.767 c -15.28,0 -27.667,-14.327 -27.667,-32 0,-17.6731 12.387,-32 27.667,-32"
       id="path4001"
       inkscape:connector-curvature="0" />
    <text
       font-size="12.8"
       style="font-style:normal;font-weight:700;font-size:12.80000019px;font-family:monospace;text-anchor:middle;fill:#000000"
       x="449.10001"
       y="113.25"
       id="text4005">
      <tspan
         x="449.10001"
         y="113.25"
         id="tspan4003">CMS plugin</tspan>
    </text>
  </g>
  <g
     id="g4019"
     transform="translate(-1,-0.25)">
    <line
       style="fill:none;fill-opacity:0;stroke:#000000;stroke-width:2"
       x1="449.01001"
       y1="150.98599"
       x2="448.47198"
       y2="209.004"
       id="line4009" />
    <polygon
       style="fill:#000000"
       points="443.987,153.439 449.079,143.486 453.986,153.532 449.01,150.986 "
       id="polygon4011" />
    <polygon
       style="fill:none;fill-opacity:0;stroke:#000000;stroke-width:2"
       points="443.987,153.439 449.079,143.486 453.986,153.532 449.01,150.986 "
       id="polygon4013" />
    <polygon
       style="fill:#000000"
       points="453.495,206.551 448.402,216.504 443.495,206.458 448.472,209.004 "
       id="polygon4015" />
    <polygon
       style="fill:none;fill-opacity:0;stroke:#000000;stroke-width:2"
       points="453.495,206.551 448.402,216.504 443.495,206.458 448.472,209.004 "
       id="polygon4017" />
  </g>
  <g
     id="g4029"
     transform="translate(-1,-0.25)">
    <path
       style="fill:#ffff00"
       d="m 268.95,526 h 113.8 c 15.713,0 28.45,11.417 28.45,25.5 0,14.083 -12.737,25.5 -28.45,25.5 h -113.8 c -15.713,0 -28.45,-11.417 -28.45,-25.5 0,-14.083 12.737,-25.5 28.45,-25.5 z"
       id="path4021"
       inkscape:connector-curvature="0" />
    <path
       style="fill:none;fill-opacity:0;stroke:#000000;stroke-width:2"
       d="m 268.95,526 h 113.8 c 15.713,0 28.45,11.417 28.45,25.5 0,14.083 -12.737,25.5 -28.45,25.5 h -113.8 c -15.713,0 -28.45,-11.417 -28.45,-25.5 0,-14.083 12.737,-25.5 28.45,-25.5"
       id="path4023"
       inkscape:connector-curvature="0" />
    <text
       font-size="12.8"
       style="font-style:normal;font-weight:700;font-size:12.80000019px;font-family:monospace;text-anchor:middle;fill:#000000"
       x="325.85001"
       y="555.5"
       id="text4027">
      <tspan
         x="325.85001"
         y="555.5"
         id="tspan4025">ovn-controller</tspan>
    </text>
  </g>
  <g
     id="g4041"
     transform="translate(-1,-0.25)">
    <polyline
       style="fill:none;fill-opacity:0;stroke:#000000;stroke-width:2"
       points="541.374,438.789 325.85,438.789 325.85,516.264 "
       id="polyline4031" />
    <polygon
       style="fill:#000000"
       points="538.874,433.789 548.874,438.789 538.874,443.789 541.374,438.789 "
       id="polygon4033" />
    <polygon
       style="fill:none;fill-opacity:0;stroke:#000000;stroke-width:2"
       points="538.874,433.789 548.874,438.789 538.874,443.789 541.374,438.789 "
       id="polygon4035" />
    <polygon
       style="fill:#000000"
       points="330.85,513.764 325.85,523.764 320.85,513.764 325.85,516.264 "
       id="polygon4037" />
    <polygon
       style="fill:none;fill-opacity:0;stroke:#000000;stroke-width:2"
       points="330.85,513.764 325.85,523.764 320.85,513.764 325.85,516.264 "
       id="polygon4039" />
  </g>
  <text
     font-size="12.8"
     style="font-style:normal;font-weight:700;font-size:12.80000019px;font-family:monospace;text-anchor:start;fill:#000000"
     x="424.10001"
     y="432.14987"
     id="text4045">
    <tspan
       x="424.10001"
       y="432.14987"
       id="tspan4043">Ovs db</tspan>
  </text>
  <g
     id="g4055"
     transform="translate(-1,-0.25)">
    <path
       style="fill:#ff0000"
       d="m 268.55,621.5 h 113.8 c 15.713,0 28.45,11.417 28.45,25.5 0,14.083 -12.737,25.5 -28.45,25.5 h -113.8 c -15.713,0 -28.45,-11.417 -28.45,-25.5 0,-14.083 12.737,-25.5 28.45,-25.5 z"
       id="path4047"
       inkscape:connector-curvature="0" />
    <path
       style="fill:none;fill-opacity:0;stroke:#000000;stroke-width:2"
       d="m 268.55,621.5 h 113.8 c 15.713,0 28.45,11.417 28.45,25.5 0,14.083 -12.737,25.5 -28.45,25.5 h -113.8 c -15.713,0 -28.45,-11.417 -28.45,-25.5 0,-14.083 12.737,-25.5 28.45,-25.5"
       id="path4049"
       inkscape:connector-curvature="0" />
    <text
       font-size="12.8"
       style="font-style:normal;font-weight:700;font-size:12.80000019px;font-family:monospace;text-anchor:middle;fill:#000000"
       x="325.45001"
       y="651"
       id="text4053">
      <tspan
         x="325.45001"
         y="651"
         id="tspan4051">ovs-vswitchd</tspan>
    </text>
  </g>
  <g
     id="g4067"
     transform="translate(-1,-0.25)">
    <line
       style="fill:none;fill-opacity:0;stroke:#000000;stroke-width:2"
       x1="325.76199"
       y1="586.73602"
       x2="325.53799"
       y2="611.76398"
       id="line4057" />
    <polygon
       style="fill:#000000"
       points="320.74,589.191 325.83,579.236 330.74,589.281 325.762,586.736 "
       id="polygon4059" />
    <polygon
       style="fill:none;fill-opacity:0;stroke:#000000;stroke-width:2"
       points="320.74,589.191 325.83,579.236 330.74,589.281 325.762,586.736 "
       id="polygon4061" />
    <polygon
       style="fill:#000000"
       points="330.56,609.309 325.47,619.264 320.56,609.219 325.538,611.764 "
       id="polygon4063" />
    <polygon
       style="fill:none;fill-opacity:0;stroke:#000000;stroke-width:2"
       points="330.56,609.309 325.47,619.264 320.56,609.219 325.538,611.764 "
       id="polygon4065" />
  </g>
  <rect
     style="fill:none;fill-opacity:0;stroke:#000000;stroke-width:2"
     x="188"
     y="506.74991"
     width="273"
     height="185"
     id="rect4069" />
  <text
     font-size="12.8"
     style="font-style:normal;font-weight:700;font-size:12.80000019px;font-family:monospace;text-anchor:start;fill:#000000"
     x="429.10001"
     y="522.15015"
     id="text4073">
    <tspan
       x="429.10001"
       y="522.15015"
       id="tspan4071">HVn</tspan>
  </text>
</svg>
