<?xml version="1.0" encoding="UTF-8" standalone="no"?>
<!DOCTYPE svg PUBLIC "-//W3C//DTD SVG 1.0//EN" "http://www.w3.org/TR/2001/PR-SVG-20010719/DTD/svg10.dtd">
<svg width="43cm" height="23cm" viewBox="186 133 850 448" xmlns="http://www.w3.org/2000/svg" xmlns:xlink="http://www.w3.org/1999/xlink">
  <g>
    <path style="fill: #0096d4" d="M 500.43 439.636 L 500.43,458 L 573.075,458 L 573.075,439.636 L 500.43,439.636z"/>
    <path style="fill: none; fill-opacity:0; stroke-width: 0.02; stroke: #aae6ff" d="M 500.43 439.636 L 500.43,458 L 573.075,458 L 573.075,439.636 L 500.43,439.636"/>
    <path style="fill: #005a80" d="M 573.075 439.636 L 595.57,418 L 595.57,436.364 L 573.075,458 L 573.075,439.636z"/>
    <path style="fill: none; fill-opacity:0; stroke-width: 0.02; stroke: #aae6ff" d="M 573.075 439.636 L 595.57,418 L 595.57,436.364 L 573.075,458 L 573.075,439.636"/>
    <path style="fill: #00b4ff" d="M 573.075 439.636 L 595.57,418 L 522.876,418 L 500.43,439.636 L 573.075,439.636z"/>
    <path style="fill: none; fill-opacity:0; stroke-width: 0.02; stroke: #aae6ff" d="M 573.075 439.636 L 595.57,418 L 522.876,418 L 500.43,439.636 L 573.075,439.636"/>
    <path style="fill: #000000" d="M 545.984 429.157 L 543.356,431.736 L 561.835,431.736 L 559.207,435.041 L 574.397,431.091 L 566.48,427.835 L 564.48,429.157 L 545.984,429.157z"/>
    <path style="fill: #000000" d="M 555.24 420.628 L 552.595,423.24 L 571.091,423.24 L 567.785,426.512 L 583.637,421.95 L 575.058,418.645 L 573.769,420.628 L 555.24,420.628z"/>
    <path style="fill: #000000" d="M 539.372 436.364 L 542.066,433.719 L 522.876,433.719 L 526.182,430.446 L 510.959,434.364 L 518.909,437.669 L 520.248,436.364 L 539.372,436.364z"/>
    <path style="fill: #000000" d="M 547.984 427.14 L 550.628,424.579 L 532.132,424.579 L 535.455,421.273 L 519.57,425.851 L 528.149,429.157 L 529.471,427.14 L 547.984,427.14z"/>
    <path style="fill: #ffffff" d="M 546.645 429.769 L 544.017,432.397 L 562.513,432.397 L 559.868,435.686 L 575.058,431.736 L 567.108,428.479 L 565.157,429.769 L 546.645,429.769z"/>
    <path style="fill: #ffffff" d="M 555.901 421.273 L 553.256,423.884 L 571.752,423.884 L 568.447,427.14 L 584.314,422.562 L 575.736,419.306 L 574.397,421.273 L 555.901,421.273z"/>
    <path style="fill: #ffffff" d="M 540.033 437.008 L 542.678,434.364 L 523.554,434.364 L 526.81,431.091 L 511.637,435.041 L 519.57,438.314 L 520.876,437.008 L 540.033,437.008z"/>
    <path style="fill: #ffffff" d="M 548.612 427.835 L 551.29,425.19 L 532.761,425.19 L 536.083,421.95 L 520.248,426.512 L 528.827,429.769 L 530.116,427.835 L 548.612,427.835z"/>
  </g>
  <g>
    <path style="fill: #0096d4" d="M 865.224 438.16 L 865.224,456.524 L 937.869,456.524 L 937.869,438.16 L 865.224,438.16z"/>
    <path style="fill: none; fill-opacity:0; stroke-width: 0.02; stroke: #aae6ff" d="M 865.224 438.16 L 865.224,456.524 L 937.869,456.524 L 937.869,438.16 L 865.224,438.16"/>
    <path style="fill: #005a80" d="M 937.869 438.16 L 960.364,416.524 L 960.364,434.888 L 937.869,456.524 L 937.869,438.16z"/>
    <path style="fill: none; fill-opacity:0; stroke-width: 0.02; stroke: #aae6ff" d="M 937.869 438.16 L 960.364,416.524 L 960.364,434.888 L 937.869,456.524 L 937.869,438.16"/>
    <path style="fill: #00b4ff" d="M 937.869 438.16 L 960.364,416.524 L 887.67,416.524 L 865.224,438.16 L 937.869,438.16z"/>
    <path style="fill: none; fill-opacity:0; stroke-width: 0.02; stroke: #aae6ff" d="M 937.869 438.16 L 960.364,416.524 L 887.67,416.524 L 865.224,438.16 L 937.869,438.16"/>
    <path style="fill: #000000" d="M 910.778 427.681 L 908.15,430.26 L 926.629,430.26 L 924.001,433.565 L 939.191,429.615 L 931.274,426.359 L 929.274,427.681 L 910.778,427.681z"/>
    <path style="fill: #000000" d="M 920.034 419.152 L 917.389,421.764 L 935.885,421.764 L 932.579,425.036 L 948.431,420.474 L 939.852,417.169 L 938.563,419.152 L 920.034,419.152z"/>
    <path style="fill: #000000" d="M 904.166 434.888 L 906.86,432.243 L 887.67,432.243 L 890.976,428.97 L 875.753,432.888 L 883.703,436.193 L 885.042,434.888 L 904.166,434.888z"/>
    <path style="fill: #000000" d="M 912.778 425.664 L 915.422,423.103 L 896.926,423.103 L 900.249,419.797 L 884.364,424.375 L 892.943,427.681 L 894.265,425.664 L 912.778,425.664z"/>
    <path style="fill: #ffffff" d="M 911.439 428.293 L 908.811,430.921 L 927.307,430.921 L 924.662,434.21 L 939.852,430.26 L 931.902,427.003 L 929.951,428.293 L 911.439,428.293z"/>
    <path style="fill: #ffffff" d="M 920.695 419.797 L 918.05,422.408 L 936.546,422.408 L 933.241,425.664 L 949.108,421.086 L 940.53,417.83 L 939.191,419.797 L 920.695,419.797z"/>
    <path style="fill: #ffffff" d="M 904.827 435.532 L 907.472,432.888 L 888.348,432.888 L 891.604,429.615 L 876.431,433.565 L 884.364,436.838 L 885.67,435.532 L 904.827,435.532z"/>
    <path style="fill: #ffffff" d="M 913.406 426.359 L 916.084,423.714 L 897.555,423.714 L 900.877,420.474 L 885.042,425.036 L 893.621,428.293 L 894.91,426.359 L 913.406,426.359z"/>
  </g>
  <g>
    <path style="fill: #0078aa" d="M 769.872 350.248 L 769.815,349.649 L 769.692,349.05 L 769.482,348.461 L 769.188,347.881 L 768.788,347.291 L 768.322,346.721 L 767.761,346.16 L 767.134,345.608 L 766.411,345.066 L 765.613,344.543 L 764.747,344.039 L 763.806,343.526 L 762.789,343.041 L 761.705,342.585 L 760.545,342.147 L 759.328,341.729 L 758.063,341.32 L 756.732,340.949 L 755.354,340.598 L 753.918,340.265 L 752.435,339.961 L 750.904,339.704 L 749.345,339.438 L 747.766,339.228 L 746.14,339.029 L 744.486,338.877 L 742.813,338.734 L 741.12,338.639 L 739.428,338.544 L 737.716,338.515 L 736.005,338.487 L 736.005,338.487 L 734.284,338.515 L 732.572,338.544 L 730.88,338.639 L 729.188,338.734 L 727.514,338.877 L 725.86,339.029 L 724.234,339.228 L 722.646,339.438 L 721.087,339.704 L 719.566,339.961 L 718.082,340.265 L 716.647,340.598 L 715.268,340.949 L 713.937,341.32 L 712.663,341.729 L 711.455,342.147 L 710.295,342.585 L 709.211,343.041 L 708.194,343.526 L 707.253,344.039 L 706.388,344.543 L 705.589,345.066 L 704.866,345.608 L 704.239,346.16 L 703.678,346.721 L 703.212,347.291 L 702.813,347.881 L 702.508,348.461 L 702.29,349.05 L 702.176,349.649 L 702.128,350.248 L 702.128,350.248 L 702.176,350.838 L 702.29,351.437 L 702.508,352.026 L 702.813,352.606 L 703.212,353.196 L 703.678,353.766 L 704.239,354.327 L 704.866,354.879 L 705.589,355.42 L 706.388,355.943 L 707.253,356.466 L 708.194,356.961 L 709.211,357.446 L 710.295,357.902 L 711.455,358.358 L 712.663,358.777 L 713.937,359.167 L 715.268,359.547 L 716.647,359.889 L 718.082,360.222 L 719.566,360.526 L 721.087,360.802 L 722.646,361.049 L 724.234,361.277 L 725.86,361.458 L 727.514,361.629 L 729.188,361.753 L 730.88,361.867 L 732.572,361.943 L 734.284,361.99 L 736.005,362 L 736.005,362 L 737.716,361.99 L 739.428,361.943 L 741.12,361.867 L 742.813,361.753 L 744.486,361.629 L 746.14,361.458 L 747.766,361.277 L 749.345,361.049 L 750.904,360.802 L 752.435,360.526 L 753.918,360.222 L 755.354,359.889 L 756.732,359.547 L 758.063,359.167 L 759.328,358.777 L 760.545,358.358 L 761.705,357.902 L 762.789,357.446 L 763.806,356.961 L 764.747,356.466 L 765.613,355.943 L 766.411,355.42 L 767.134,354.879 L 767.761,354.327 L 768.322,353.766 L 768.788,353.196 L 769.188,352.606 L 769.482,352.026 L 769.692,351.437 L 769.815,350.838 L 769.872,350.248z"/>
    <path style="fill: none; fill-opacity:0; stroke-width: 0.02; stroke: #aae6ff" d="M 769.473 350.058 L 769.425,349.459 L 769.311,348.889 L 769.093,348.299 L 768.798,347.729 L 768.408,347.158 L 767.914,346.597 L 767.4,346.055 L 766.754,345.504 L 766.041,344.971 L 765.251,344.439 L 764.377,343.944 L 763.445,343.45 L 762.437,342.975 L 761.363,342.518 L 760.222,342.081 L 759.005,341.681 L 757.731,341.301 L 756.418,340.911 L 755.049,340.588 L 753.623,340.246 L 752.14,339.951 L 750.638,339.685 L 749.097,339.438 L 747.51,339.228 L 745.903,339.029 L 744.248,338.877 L 742.594,338.734 L 740.911,338.639 L 739.219,338.572 L 737.517,338.515 L 735.815,338.515 L 735.815,338.515 L 734.094,338.515 L 732.401,338.572 L 730.699,338.639 L 729.036,338.734 L 727.372,338.877 L 725.727,339.029 L 724.11,339.228 L 722.523,339.438 L 720.973,339.685 L 719.471,339.951 L 717.987,340.246 L 716.561,340.588 L 715.201,340.911 L 713.88,341.301 L 712.606,341.681 L 711.398,342.081 L 710.267,342.518 L 709.192,342.975 L 708.175,343.45 L 707.224,343.944 L 706.378,344.439 L 705.579,344.971 L 704.866,345.504 L 704.239,346.055 L 703.687,346.597 L 703.212,347.158 L 702.832,347.729 L 702.527,348.299 L 702.309,348.889 L 702.185,349.459 L 702.138,350.058 L 702.138,350.058 L 702.185,350.638 L 702.309,351.237 L 702.527,351.798 L 702.832,352.378 L 703.212,352.958 L 703.687,353.509 L 704.239,354.061 L 704.866,354.612 L 705.579,355.135 L 706.378,355.668 L 707.224,356.172 L 708.175,356.647 L 709.192,357.132 L 710.267,357.598 L 711.398,358.016 L 712.606,358.425 L 713.88,358.815 L 715.201,359.195 L 716.561,359.528 L 717.987,359.851 L 719.471,360.155 L 720.973,360.422 L 722.523,360.659 L 724.11,360.888 L 725.727,361.078 L 727.372,361.23 L 729.036,361.363 L 730.699,361.458 L 732.401,361.544 L 734.094,361.591 L 735.815,361.601 L 735.815,361.601 L 737.517,361.591 L 739.219,361.544 L 740.911,361.458 L 742.594,361.363 L 744.248,361.23 L 745.903,361.078 L 747.51,360.888 L 749.097,360.659 L 750.638,360.422 L 752.14,360.155 L 753.623,359.851 L 755.049,359.528 L 756.418,359.195 L 757.731,358.815 L 759.005,358.425 L 760.222,358.016 L 761.363,357.598 L 762.437,357.132 L 763.445,356.647 L 764.377,356.172 L 765.251,355.668 L 766.041,355.135 L 766.754,354.612 L 767.4,354.061 L 767.914,353.509 L 768.408,352.958 L 768.798,352.378 L 769.093,351.798 L 769.311,351.237 L 769.425,350.638 L 769.473,350.058"/>
    <path style="fill: #0078aa" d="M 702.138 333.961 L 702.138,350.467 L 769.473,350.467 L 769.473,333.961 L 702.138,333.961z"/>
    <path style="fill: #00b4ff" d="M 769.872 333.761 L 769.815,333.162 L 769.692,332.554 L 769.482,331.974 L 769.188,331.384 L 768.788,330.795 L 768.322,330.224 L 767.761,329.663 L 767.134,329.121 L 766.411,328.57 L 765.613,328.057 L 764.747,327.534 L 763.806,327.039 L 762.789,326.545 L 761.705,326.098 L 760.545,325.651 L 759.328,325.223 L 758.063,324.824 L 756.732,324.453 L 755.354,324.101 L 753.918,323.778 L 752.435,323.483 L 750.904,323.198 L 749.345,322.951 L 747.766,322.723 L 746.14,322.532 L 744.486,322.371 L 742.813,322.238 L 741.12,322.133 L 739.428,322.057 L 737.716,322.01 L 736.005,322 L 736.005,322 L 734.284,322.01 L 732.572,322.057 L 730.88,322.133 L 729.188,322.238 L 727.514,322.371 L 725.86,322.532 L 724.234,322.723 L 722.646,322.951 L 721.087,323.198 L 719.566,323.483 L 718.082,323.778 L 716.647,324.101 L 715.268,324.453 L 713.937,324.824 L 712.663,325.223 L 711.455,325.651 L 710.295,326.098 L 709.211,326.545 L 708.194,327.039 L 707.253,327.534 L 706.388,328.057 L 705.589,328.57 L 704.866,329.121 L 704.239,329.663 L 703.678,330.224 L 703.212,330.795 L 702.813,331.384 L 702.508,331.974 L 702.29,332.554 L 702.176,333.162 L 702.128,333.761 L 702.128,333.761 L 702.176,334.351 L 702.29,334.95 L 702.508,335.539 L 702.813,336.11 L 703.212,336.699 L 703.678,337.27 L 704.239,337.831 L 704.866,338.392 L 705.589,338.934 L 706.388,339.447 L 707.253,339.961 L 708.194,340.474 L 709.211,340.949 L 710.295,341.406 L 711.455,341.853 L 712.663,342.271 L 713.937,342.68 L 715.268,343.041 L 716.647,343.393 L 718.082,343.726 L 719.566,344.039 L 721.087,344.296 L 722.646,344.553 L 724.234,344.781 L 725.86,344.962 L 727.514,345.123 L 729.188,345.256 L 730.88,345.361 L 732.572,345.447 L 734.284,345.494 L 736.005,345.504 L 736.005,345.504 L 737.716,345.494 L 739.428,345.447 L 741.12,345.361 L 742.813,345.256 L 744.486,345.123 L 746.14,344.962 L 747.766,344.781 L 749.345,344.553 L 750.904,344.296 L 752.435,344.039 L 753.918,343.726 L 755.354,343.393 L 756.732,343.041 L 758.063,342.68 L 759.328,342.271 L 760.545,341.853 L 761.705,341.406 L 762.789,340.949 L 763.806,340.474 L 764.747,339.961 L 765.613,339.447 L 766.411,338.934 L 767.134,338.392 L 767.761,337.831 L 768.322,337.27 L 768.788,336.699 L 769.188,336.11 L 769.482,335.539 L 769.692,334.95 L 769.815,334.351 L 769.872,333.761z"/>
    <path style="fill: none; fill-opacity:0; stroke-width: 0.02; stroke: #aae6ff" d="M 769.473 333.562 L 769.425,332.963 L 769.311,332.392 L 769.093,331.812 L 768.798,331.232 L 768.408,330.671 L 767.914,330.091 L 767.4,329.559 L 766.754,329.007 L 766.041,328.484 L 765.251,327.942 L 764.377,327.458 L 763.445,326.954 L 762.437,326.478 L 761.363,326.041 L 760.222,325.585 L 759.005,325.204 L 757.731,324.795 L 756.418,324.425 L 755.049,324.082 L 753.623,323.749 L 752.14,323.455 L 750.638,323.188 L 749.097,322.951 L 747.51,322.723 L 745.903,322.532 L 744.248,322.38 L 742.594,322.238 L 740.911,322.143 L 739.219,322.067 L 737.517,322.019 L 735.815,322.01 L 735.815,322.01 L 734.094,322.019 L 732.401,322.067 L 730.699,322.143 L 729.036,322.238 L 727.372,322.38 L 725.727,322.532 L 724.11,322.723 L 722.523,322.951 L 720.973,323.188 L 719.471,323.455 L 717.987,323.749 L 716.561,324.082 L 715.201,324.425 L 713.88,324.795 L 712.606,325.204 L 711.398,325.585 L 710.267,326.041 L 709.192,326.478 L 708.175,326.954 L 707.224,327.458 L 706.378,327.942 L 705.579,328.484 L 704.866,329.007 L 704.239,329.559 L 703.687,330.091 L 703.212,330.671 L 702.832,331.232 L 702.527,331.812 L 702.309,332.392 L 702.185,332.963 L 702.138,333.562 L 702.138,333.562 L 702.185,334.151 L 702.309,334.731 L 702.527,335.311 L 702.832,335.882 L 703.212,336.452 L 703.687,337.023 L 704.239,337.565 L 704.866,338.116 L 705.579,338.639 L 706.378,339.171 L 707.224,339.675 L 708.175,340.151 L 709.192,340.636 L 710.267,341.092 L 711.398,341.52 L 712.606,341.929 L 713.88,342.319 L 715.201,342.689 L 716.561,343.032 L 717.987,343.364 L 719.471,343.678 L 720.973,343.925 L 722.523,344.182 L 724.11,344.401 L 725.727,344.581 L 727.372,344.753 L 729.036,344.886 L 730.699,344.971 L 732.401,345.057 L 734.094,345.104 L 735.815,345.114 L 735.815,345.114 L 737.517,345.104 L 739.219,345.057 L 740.911,344.971 L 742.594,344.886 L 744.248,344.753 L 745.903,344.581 L 747.51,344.401 L 749.097,344.182 L 750.638,343.925 L 752.14,343.678 L 753.623,343.364 L 755.049,343.032 L 756.418,342.689 L 757.731,342.319 L 759.005,341.929 L 760.222,341.52 L 761.363,341.092 L 762.437,340.636 L 763.445,340.151 L 764.377,339.675 L 765.251,339.171 L 766.041,338.639 L 766.754,338.116 L 767.4,337.565 L 767.914,337.023 L 768.408,336.452 L 768.798,335.882 L 769.093,335.311 L 769.311,334.731 L 769.425,334.151 L 769.473,333.562"/>
    <path style="fill: #000000" d="M 736.632 331.09 L 741.558,332.744 L 753.471,327.781 L 758.805,329.426 L 755.924,325.318 L 741.976,325.318 L 747.709,326.545 L 736.632,331.09z"/>
    <path style="fill: #000000" d="M 734.569 335.625 L 729.654,333.961 L 718.149,338.934 L 712.406,337.27 L 715.268,341.805 L 729.654,341.805 L 723.483,340.151 L 734.569,335.625z"/>
    <path style="fill: #000000" d="M 713.633 326.545 L 718.548,324.9 L 730.471,329.426 L 735.815,328.199 L 732.943,332.307 L 718.967,332.307 L 724.709,331.09 L 713.633,326.545z"/>
    <path style="fill: #000000" d="M 757.978 340.56 L 753.043,342.214 L 741.558,337.27 L 735.815,338.934 L 738.686,334.788 L 753.043,334.788 L 746.891,336.024 L 757.978,340.56z"/>
    <path style="fill: #ffffff" d="M 737.041 331.498 L 741.976,333.143 L 753.861,328.199 L 759.214,329.854 L 756.333,325.718 L 742.375,325.718 L 748.128,326.944 L 737.041,331.498z"/>
    <path style="fill: #ffffff" d="M 734.988 336.024 L 730.043,334.379 L 718.548,339.324 L 712.805,337.679 L 715.677,342.214 L 730.043,342.214 L 723.892,340.56 L 734.988,336.024z"/>
    <path style="fill: #ffffff" d="M 714.041 326.944 L 718.967,325.318 L 730.88,329.854 L 736.214,328.599 L 733.352,332.744 L 719.375,332.744 L 725.137,331.498 L 714.041,326.944z"/>
    <path style="fill: #ffffff" d="M 758.377 340.987 L 753.471,342.632 L 741.976,337.679 L 736.214,339.324 L 739.085,335.216 L 753.471,335.216 L 747.31,336.443 L 758.377,340.987z"/>
    <path style="fill: none; fill-opacity:0; stroke-width: 0.02; stroke: #aae6ff" d="M 702.138 333.562 L 702.138,350.039"/>
    <path style="fill: none; fill-opacity:0; stroke-width: 0.02; stroke: #aae6ff" d="M 769.473 333.562 L 769.473,350.039"/>
  </g>
  <polyline style="fill: none; fill-opacity:0; stroke-width: 3; stroke: #000000" points="559.223,418 559.223,341.919 702.128,341.919 "/>
  <polyline style="fill: none; fill-opacity:0; stroke-width: 3; stroke: #000000" points="769.872,341.995 924.017,341.995 924.017,416.524 "/>
  <g>
    <rect style="fill: #b3b3b3" x="521.71" y="490.434" width="28.1699" height="65.7297"/>
    <rect style="fill: none; fill-opacity:0; stroke-width: 1.6; stroke: #000000" x="521.71" y="490.434" width="28.1699" height="65.7297"/>
    <rect style="fill: none; fill-opacity:0; stroke-width: 0.2; stroke: #000000" x="524.527" y="494.378" width="22.5359" height="7.51196"/>
    <rect style="fill: none; fill-opacity:0; stroke-width: 0.2; stroke: #000000" x="524.527" y="501.89" width="22.5359" height="7.51196"/>
    <rect style="fill: none; fill-opacity:0; stroke-width: 0.2; stroke: #000000" x="524.527" y="509.402" width="22.5359" height="7.51196"/>
    <rect style="fill: none; fill-opacity:0; stroke-width: 0.2; stroke: #000000" x="524.527" y="516.914" width="22.5359" height="7.51196"/>
    <rect style="fill: none; fill-opacity:0; stroke-width: 0.2; stroke: #000000" x="524.527" y="525.928" width="14.0849" height="4.50718"/>
    <ellipse style="fill: #00ff00" cx="545.654" cy="526.679" rx="0.985945" ry="0.985945"/>
    <ellipse style="fill: none; fill-opacity:0; stroke-width: 0.2; stroke: #000000" cx="545.654" cy="526.679" rx="0.985945" ry="0.985945"/>
    <ellipse style="fill: #ffff00" cx="545.654" cy="529.684" rx="0.985945" ry="0.985945"/>
    <ellipse style="fill: none; fill-opacity:0; stroke-width: 0.2; stroke: #000000" cx="545.654" cy="529.684" rx="0.985945" ry="0.985945"/>
    <rect style="fill: #ffffff" x="540.02" y="527.43" width="3.38038" height="3.00478"/>
    <rect style="fill: none; fill-opacity:0; stroke-width: 0.2; stroke: #000000" x="540.02" y="527.43" width="3.38038" height="3.00478"/>
    <path style="fill: none; fill-opacity:0; stroke-width: 0.2; stroke: #000000" d="M 526.405 536.445 L 526.405,552.877"/>
    <path style="fill: none; fill-opacity:0; stroke-width: 0.2; stroke: #000000" d="M 531.1 536.445 L 531.1,552.877"/>
    <path style="fill: none; fill-opacity:0; stroke-width: 0.2; stroke: #000000" d="M 535.795 536.445 L 535.795,552.877"/>
    <path style="fill: none; fill-opacity:0; stroke-width: 0.2; stroke: #000000" d="M 540.49 536.445 L 540.49,552.877"/>
    <path style="fill: none; fill-opacity:0; stroke-width: 0.2; stroke: #000000" d="M 545.185 536.445 L 545.185,552.877"/>
    <path style="fill: none; fill-opacity:0; stroke-width: 0.2; stroke: #000000" d="M 549.88 536.445 L 549.88,552.877"/>
    <polygon style="fill: #999999" points="516.076,561.798 521.71,550.53 521.71,556.164 549.88,556.164 549.88,550.53 557.392,561.798 "/>
    <polygon style="fill: none; fill-opacity:0; stroke-width: 0.2; stroke: #000000" points="516.076,561.798 521.71,550.53 521.71,556.164 549.88,556.164 549.88,550.53 557.392,561.798 "/>
    <text font-size="12.8" style="fill: #000000;text-anchor:middle;font-family:monospace;font-style:normal;font-weight:700" x="536.734" y="575.676">
      <tspan x="536.734" y="575.676">1.1.0.1</tspan>
    </text>
  </g>
  <polyline style="fill: none; fill-opacity:0; stroke-width: 3; stroke: #000000" points="536.734,490.434 536.734,482.716 536.744,482.716 536.744,458 "/>
  <g>
    <rect style="fill: #b3b3b3" x="886.584" y="490.734" width="28.1699" height="65.7297"/>
    <rect style="fill: none; fill-opacity:0; stroke-width: 1.6; stroke: #000000" x="886.584" y="490.734" width="28.1699" height="65.7297"/>
    <rect style="fill: none; fill-opacity:0; stroke-width: 0.2; stroke: #000000" x="889.401" y="494.678" width="22.5359" height="7.51196"/>
    <rect style="fill: none; fill-opacity:0; stroke-width: 0.2; stroke: #000000" x="889.401" y="502.19" width="22.5359" height="7.51196"/>
    <rect style="fill: none; fill-opacity:0; stroke-width: 0.2; stroke: #000000" x="889.401" y="509.702" width="22.5359" height="7.51196"/>
    <rect style="fill: none; fill-opacity:0; stroke-width: 0.2; stroke: #000000" x="889.401" y="517.214" width="22.5359" height="7.51196"/>
    <rect style="fill: none; fill-opacity:0; stroke-width: 0.2; stroke: #000000" x="889.401" y="526.228" width="14.0849" height="4.50718"/>
    <ellipse style="fill: #00ff00" cx="910.528" cy="526.979" rx="0.985945" ry="0.985945"/>
    <ellipse style="fill: none; fill-opacity:0; stroke-width: 0.2; stroke: #000000" cx="910.528" cy="526.979" rx="0.985945" ry="0.985945"/>
    <ellipse style="fill: #ffff00" cx="910.528" cy="529.984" rx="0.985945" ry="0.985945"/>
    <ellipse style="fill: none; fill-opacity:0; stroke-width: 0.2; stroke: #000000" cx="910.528" cy="529.984" rx="0.985945" ry="0.985945"/>
    <rect style="fill: #ffffff" x="904.894" y="527.73" width="3.38038" height="3.00478"/>
    <rect style="fill: none; fill-opacity:0; stroke-width: 0.2; stroke: #000000" x="904.894" y="527.73" width="3.38038" height="3.00478"/>
    <path style="fill: none; fill-opacity:0; stroke-width: 0.2; stroke: #000000" d="M 891.279 536.745 L 891.279,553.177"/>
    <path style="fill: none; fill-opacity:0; stroke-width: 0.2; stroke: #000000" d="M 895.974 536.745 L 895.974,553.177"/>
    <path style="fill: none; fill-opacity:0; stroke-width: 0.2; stroke: #000000" d="M 900.669 536.745 L 900.669,553.177"/>
    <path style="fill: none; fill-opacity:0; stroke-width: 0.2; stroke: #000000" d="M 905.364 536.745 L 905.364,553.177"/>
    <path style="fill: none; fill-opacity:0; stroke-width: 0.2; stroke: #000000" d="M 910.059 536.745 L 910.059,553.177"/>
    <path style="fill: none; fill-opacity:0; stroke-width: 0.2; stroke: #000000" d="M 914.754 536.745 L 914.754,553.177"/>
    <polygon style="fill: #999999" points="880.95,562.098 886.584,550.83 886.584,556.464 914.754,556.464 914.754,550.83 922.266,562.098 "/>
    <polygon style="fill: none; fill-opacity:0; stroke-width: 0.2; stroke: #000000" points="880.95,562.098 886.584,550.83 886.584,556.464 914.754,556.464 914.754,550.83 922.266,562.098 "/>
    <text font-size="12.8" style="fill: #000000;text-anchor:middle;font-family:monospace;font-style:normal;font-weight:700" x="901.608" y="575.976">
      <tspan x="901.608" y="575.976">1.2.0.4</tspan>
    </text>
  </g>
  <polyline style="fill: none; fill-opacity:0; stroke-width: 3; stroke: #000000" points="901.608,490.734 901.608,481.65 901.538,481.65 901.538,456.524 "/>
  <g>
    <path style="fill: #0096d4" d="M 779.48 178.343 L 779.48,196.707 L 852.125,196.707 L 852.125,178.343 L 779.48,178.343z"/>
    <path style="fill: none; fill-opacity:0; stroke-width: 0.02; stroke: #aae6ff" d="M 779.48 178.343 L 779.48,196.707 L 852.125,196.707 L 852.125,178.343 L 779.48,178.343"/>
    <path style="fill: #005a80" d="M 852.125 178.343 L 874.62,156.707 L 874.62,175.07 L 852.125,196.707 L 852.125,178.343z"/>
    <path style="fill: none; fill-opacity:0; stroke-width: 0.02; stroke: #aae6ff" d="M 852.125 178.343 L 874.62,156.707 L 874.62,175.07 L 852.125,196.707 L 852.125,178.343"/>
    <path style="fill: #00b4ff" d="M 852.125 178.343 L 874.62,156.707 L 801.926,156.707 L 779.48,178.343 L 852.125,178.343z"/>
    <path style="fill: none; fill-opacity:0; stroke-width: 0.02; stroke: #aae6ff" d="M 852.125 178.343 L 874.62,156.707 L 801.926,156.707 L 779.48,178.343 L 852.125,178.343"/>
    <path style="fill: #000000" d="M 825.034 167.864 L 822.406,170.442 L 840.885,170.442 L 838.257,173.748 L 853.447,169.798 L 845.53,166.541 L 843.53,167.864 L 825.034,167.864z"/>
    <path style="fill: #000000" d="M 834.29 159.335 L 831.645,161.946 L 850.141,161.946 L 846.835,165.219 L 862.687,160.657 L 854.108,157.351 L 852.819,159.335 L 834.29,159.335z"/>
    <path style="fill: #000000" d="M 818.422 175.07 L 821.116,172.426 L 801.926,172.426 L 805.232,169.153 L 790.009,173.07 L 797.959,176.376 L 799.298,175.07 L 818.422,175.07z"/>
    <path style="fill: #000000" d="M 827.034 165.847 L 829.678,163.285 L 811.182,163.285 L 814.505,159.979 L 798.62,164.558 L 807.199,167.864 L 808.521,165.847 L 827.034,165.847z"/>
    <path style="fill: #ffffff" d="M 825.695 168.475 L 823.067,171.103 L 841.563,171.103 L 838.918,174.393 L 854.108,170.442 L 846.158,167.186 L 844.207,168.475 L 825.695,168.475z"/>
    <path style="fill: #ffffff" d="M 834.951 159.979 L 832.306,162.591 L 850.802,162.591 L 847.497,165.847 L 863.364,161.269 L 854.786,158.012 L 853.447,159.979 L 834.951,159.979z"/>
    <path style="fill: #ffffff" d="M 819.083 175.715 L 821.728,173.07 L 802.604,173.07 L 805.86,169.798 L 790.687,173.748 L 798.62,177.021 L 799.926,175.715 L 819.083,175.715z"/>
    <path style="fill: #ffffff" d="M 827.662 166.541 L 830.34,163.897 L 811.811,163.897 L 815.133,160.657 L 799.298,165.219 L 807.877,168.475 L 809.166,166.541 L 827.662,166.541z"/>
  </g>
  <polyline style="fill: none; fill-opacity:0; stroke-width: 3; stroke: #000000" points="735.938,322 735.938,262.31 815.794,262.31 815.794,196.707 "/>
  <g>
    <path style="fill: #ffffff" d="M 458.553 171.555 C 440.317,171.112 404.95,180.42 409.923,200.368 C 414.897,220.315 438.659,224.748 448.606,218.986 C 458.553,213.223 433.133,246.912 481.763,255.778 C 530.392,264.643 555.259,250.458 548.075,240.263 C 540.891,230.067 590.626,264.2 613.836,244.696 C 637.045,225.191 590.074,206.574 600.021,209.234 C 609.967,211.893 640.361,208.347 630.414,175.101 C 620.467,141.855 530.944,167.565 540.891,162.689 C 550.838,157.813 525.971,133.433 495.025,138.309 C 464.079,143.185 461.884,152.033 458.568,171.538 L 458.553,171.555z"/>
    <path style="fill: none; fill-opacity:0; stroke-width: 2; stroke: #000000" d="M 458.553 171.555 C 440.317,171.112 404.95,180.42 409.923,200.368 C 414.897,220.315 438.659,224.748 448.606,218.986 C 458.553,213.223 433.133,246.912 481.763,255.778 C 530.392,264.643 555.259,250.458 548.075,240.263 C 540.891,230.067 590.626,264.2 613.836,244.696 C 637.045,225.191 590.074,206.574 600.021,209.234 C 609.967,211.893 640.361,208.347 630.414,175.101 C 620.467,141.855 530.944,167.565 540.891,162.689 C 550.838,157.813 525.971,133.433 495.025,138.309 C 464.079,143.185 461.884,152.033 458.568,171.538 L 458.553,171.555"/>
    <text font-size="12.8" style="fill: #000000;text-anchor:middle;font-family:monospace;font-style:normal;font-weight:700" x="528.966" y="205.351">
      <tspan x="528.966" y="205.351">192.168.123.0/24</tspan>
    </text>
  </g>
  <polyline style="fill: none; fill-opacity:0; stroke-width: 3; stroke: #000000" points="632.284,187.568 707.29,187.568 707.29,187.533 779.48,187.533 "/>
  <text font-size="12.8" style="fill: #000000;text-anchor:start;font-family:sans-serif;font-style:normal;font-weight:normal" x="522.832" y="198.558">
    <tspan x="522.832" y="198.558"></tspan>
  </text>
  <text font-size="12.8" style="fill: #000000;text-anchor:start;font-family:monospace;font-style:normal;font-weight:700" x="591.154" y="334.434">
    <tspan x="591.154" y="334.434">1.1.254.254/16</tspan>
  </text>
  <text font-size="12.8" style="fill: #000000;text-anchor:start;font-family:monospace;font-style:normal;font-weight:700" x="774.454" y="357.334">
    <tspan x="774.454" y="357.334">1.2.254.254/16</tspan>
  </text>
  <text font-size="12.8" style="fill: #000000;text-anchor:start;font-family:monospace;font-style:normal;font-weight:700" x="743.6" y="298.15">
    <tspan x="743.6" y="298.15">192.168.123.254/24</tspan>
  </text>
  <g>
    <rect style="fill: #b3b3b3" x="235.896" y="227.3" width="28.1699" height="65.7297"/>
    <rect style="fill: none; fill-opacity:0; stroke-width: 1.6; stroke: #000000" x="235.896" y="227.3" width="28.1699" height="65.7297"/>
    <rect style="fill: none; fill-opacity:0; stroke-width: 0.2; stroke: #000000" x="238.713" y="231.244" width="22.5359" height="7.51196"/>
    <rect style="fill: none; fill-opacity:0; stroke-width: 0.2; stroke: #000000" x="238.713" y="238.756" width="22.5359" height="7.51196"/>
    <rect style="fill: none; fill-opacity:0; stroke-width: 0.2; stroke: #000000" x="238.713" y="246.268" width="22.5359" height="7.51196"/>
    <rect style="fill: none; fill-opacity:0; stroke-width: 0.2; stroke: #000000" x="238.713" y="253.78" width="22.5359" height="7.51196"/>
    <rect style="fill: none; fill-opacity:0; stroke-width: 0.2; stroke: #000000" x="238.713" y="262.794" width="14.0849" height="4.50718"/>
    <ellipse style="fill: #00ff00" cx="259.84" cy="263.545" rx="0.985945" ry="0.985945"/>
    <ellipse style="fill: none; fill-opacity:0; stroke-width: 0.2; stroke: #000000" cx="259.84" cy="263.545" rx="0.985945" ry="0.985945"/>
    <ellipse style="fill: #ffff00" cx="259.84" cy="266.55" rx="0.985945" ry="0.985945"/>
    <ellipse style="fill: none; fill-opacity:0; stroke-width: 0.2; stroke: #000000" cx="259.84" cy="266.55" rx="0.985945" ry="0.985945"/>
    <rect style="fill: #ffffff" x="254.206" y="264.296" width="3.38038" height="3.00478"/>
    <rect style="fill: none; fill-opacity:0; stroke-width: 0.2; stroke: #000000" x="254.206" y="264.296" width="3.38038" height="3.00478"/>
    <path style="fill: none; fill-opacity:0; stroke-width: 0.2; stroke: #000000" d="M 240.591 273.311 L 240.591,289.743"/>
    <path style="fill: none; fill-opacity:0; stroke-width: 0.2; stroke: #000000" d="M 245.286 273.311 L 245.286,289.743"/>
    <path style="fill: none; fill-opacity:0; stroke-width: 0.2; stroke: #000000" d="M 249.981 273.311 L 249.981,289.743"/>
    <path style="fill: none; fill-opacity:0; stroke-width: 0.2; stroke: #000000" d="M 254.676 273.311 L 254.676,289.743"/>
    <path style="fill: none; fill-opacity:0; stroke-width: 0.2; stroke: #000000" d="M 259.371 273.311 L 259.371,289.743"/>
    <path style="fill: none; fill-opacity:0; stroke-width: 0.2; stroke: #000000" d="M 264.066 273.311 L 264.066,289.743"/>
    <polygon style="fill: #999999" points="230.262,298.664 235.896,287.396 235.896,293.03 264.066,293.03 264.066,287.396 271.578,298.664 "/>
    <polygon style="fill: none; fill-opacity:0; stroke-width: 0.2; stroke: #000000" points="230.262,298.664 235.896,287.396 235.896,293.03 264.066,293.03 264.066,287.396 271.578,298.664 "/>
    <text font-size="12.8" style="fill: #000000;text-anchor:middle;font-family:monospace;font-style:normal;font-weight:700" x="250.92" y="312.542">
      <tspan x="250.92" y="312.542">192.168.123.10</tspan>
    </text>
  </g>
  <polyline style="fill: none; fill-opacity:0; stroke-width: 3; stroke: #000000" points="250.92,227.3 250.92,198 409.344,198 409.344,197.097 "/>
  <g>
    <rect style="fill: #b3b3b3" x="992.562" y="490.166" width="28.1699" height="65.7297"/>
    <rect style="fill: none; fill-opacity:0; stroke-width: 1.6; stroke: #000000" x="992.562" y="490.166" width="28.1699" height="65.7297"/>
    <rect style="fill: none; fill-opacity:0; stroke-width: 0.2; stroke: #000000" x="995.379" y="494.11" width="22.5359" height="7.51196"/>
    <rect style="fill: none; fill-opacity:0; stroke-width: 0.2; stroke: #000000" x="995.379" y="501.622" width="22.5359" height="7.51196"/>
    <rect style="fill: none; fill-opacity:0; stroke-width: 0.2; stroke: #000000" x="995.379" y="509.134" width="22.5359" height="7.51196"/>
    <rect style="fill: none; fill-opacity:0; stroke-width: 0.2; stroke: #000000" x="995.379" y="516.646" width="22.5359" height="7.51196"/>
    <rect style="fill: none; fill-opacity:0; stroke-width: 0.2; stroke: #000000" x="995.379" y="525.66" width="14.0849" height="4.50718"/>
    <ellipse style="fill: #00ff00" cx="1016.51" cy="526.411" rx="0.985945" ry="0.985945"/>
    <ellipse style="fill: none; fill-opacity:0; stroke-width: 0.2; stroke: #000000" cx="1016.51" cy="526.411" rx="0.985945" ry="0.985945"/>
    <ellipse style="fill: #ffff00" cx="1016.51" cy="529.416" rx="0.985945" ry="0.985945"/>
    <ellipse style="fill: none; fill-opacity:0; stroke-width: 0.2; stroke: #000000" cx="1016.51" cy="529.416" rx="0.985945" ry="0.985945"/>
    <rect style="fill: #ffffff" x="1010.87" y="527.162" width="3.38038" height="3.00478"/>
    <rect style="fill: none; fill-opacity:0; stroke-width: 0.2; stroke: #000000" x="1010.87" y="527.162" width="3.38038" height="3.00478"/>
    <path style="fill: none; fill-opacity:0; stroke-width: 0.2; stroke: #000000" d="M 997.257 536.177 L 997.257,552.609"/>
    <path style="fill: none; fill-opacity:0; stroke-width: 0.2; stroke: #000000" d="M 1001.95 536.177 L 1001.95,552.609"/>
    <path style="fill: none; fill-opacity:0; stroke-width: 0.2; stroke: #000000" d="M 1006.65 536.177 L 1006.65,552.609"/>
    <path style="fill: none; fill-opacity:0; stroke-width: 0.2; stroke: #000000" d="M 1011.34 536.177 L 1011.34,552.609"/>
    <path style="fill: none; fill-opacity:0; stroke-width: 0.2; stroke: #000000" d="M 1016.04 536.177 L 1016.04,552.609"/>
    <path style="fill: none; fill-opacity:0; stroke-width: 0.2; stroke: #000000" d="M 1020.73 536.177 L 1020.73,552.609"/>
    <polygon style="fill: #999999" points="986.928,561.53 992.562,550.262 992.562,555.896 1020.73,555.896 1020.73,550.262 1028.24,561.53 "/>
    <polygon style="fill: none; fill-opacity:0; stroke-width: 0.2; stroke: #000000" points="986.928,561.53 992.562,550.262 992.562,555.896 1020.73,555.896 1020.73,550.262 1028.24,561.53 "/>
    <text font-size="12.8" style="fill: #000000;text-anchor:middle;font-family:monospace;font-style:normal;font-weight:700" x="1007.59" y="575.408">
      <tspan x="1007.59" y="575.408">1.2.0.3</tspan>
    </text>
  </g>
  <polyline style="fill: none; fill-opacity:0; stroke-width: 3; stroke: #000000" points="1007.59,490.166 1007.59,425.66 961.364,425.66 961.364,427.364 "/>
  <g>
    <rect style="fill: #b3b3b3" x="442.666" y="490.75" width="28.1699" height="65.7297"/>
    <rect style="fill: none; fill-opacity:0; stroke-width: 1.6; stroke: #000000" x="442.666" y="490.75" width="28.1699" height="65.7297"/>
    <rect style="fill: none; fill-opacity:0; stroke-width: 0.2; stroke: #000000" x="445.483" y="494.694" width="22.5359" height="7.51196"/>
    <rect style="fill: none; fill-opacity:0; stroke-width: 0.2; stroke: #000000" x="445.483" y="502.206" width="22.5359" height="7.51196"/>
    <rect style="fill: none; fill-opacity:0; stroke-width: 0.2; stroke: #000000" x="445.483" y="509.718" width="22.5359" height="7.51196"/>
    <rect style="fill: none; fill-opacity:0; stroke-width: 0.2; stroke: #000000" x="445.483" y="517.23" width="22.5359" height="7.51196"/>
    <rect style="fill: none; fill-opacity:0; stroke-width: 0.2; stroke: #000000" x="445.483" y="526.244" width="14.0849" height="4.50718"/>
    <ellipse style="fill: #00ff00" cx="466.61" cy="526.995" rx="0.985945" ry="0.985945"/>
    <ellipse style="fill: none; fill-opacity:0; stroke-width: 0.2; stroke: #000000" cx="466.61" cy="526.995" rx="0.985945" ry="0.985945"/>
    <ellipse style="fill: #ffff00" cx="466.61" cy="530" rx="0.985945" ry="0.985945"/>
    <ellipse style="fill: none; fill-opacity:0; stroke-width: 0.2; stroke: #000000" cx="466.61" cy="530" rx="0.985945" ry="0.985945"/>
    <rect style="fill: #ffffff" x="460.976" y="527.746" width="3.38038" height="3.00478"/>
    <rect style="fill: none; fill-opacity:0; stroke-width: 0.2; stroke: #000000" x="460.976" y="527.746" width="3.38038" height="3.00478"/>
    <path style="fill: none; fill-opacity:0; stroke-width: 0.2; stroke: #000000" d="M 447.361 536.761 L 447.361,553.193"/>
    <path style="fill: none; fill-opacity:0; stroke-width: 0.2; stroke: #000000" d="M 452.056 536.761 L 452.056,553.193"/>
    <path style="fill: none; fill-opacity:0; stroke-width: 0.2; stroke: #000000" d="M 456.751 536.761 L 456.751,553.193"/>
    <path style="fill: none; fill-opacity:0; stroke-width: 0.2; stroke: #000000" d="M 461.446 536.761 L 461.446,553.193"/>
    <path style="fill: none; fill-opacity:0; stroke-width: 0.2; stroke: #000000" d="M 466.141 536.761 L 466.141,553.193"/>
    <path style="fill: none; fill-opacity:0; stroke-width: 0.2; stroke: #000000" d="M 470.836 536.761 L 470.836,553.193"/>
    <polygon style="fill: #999999" points="437.032,562.114 442.666,550.846 442.666,556.48 470.836,556.48 470.836,550.846 478.348,562.114 "/>
    <polygon style="fill: none; fill-opacity:0; stroke-width: 0.2; stroke: #000000" points="437.032,562.114 442.666,550.846 442.666,556.48 470.836,556.48 470.836,550.846 478.348,562.114 "/>
    <text font-size="12.8" style="fill: #000000;text-anchor:middle;font-family:monospace;font-style:normal;font-weight:700" x="457.69" y="575.992">
      <tspan x="457.69" y="575.992">1.1.0.2</tspan>
    </text>
  </g>
  <polyline style="fill: none; fill-opacity:0; stroke-width: 3; stroke: #000000" points="500.43,448.826 457.69,448.826 457.69,490.75 "/>
  <text font-size="12.8" style="fill: #000000;text-anchor:start;font-family:monospace;font-style:normal;font-weight:700" x="567.73" y="413.666">
    <tspan x="567.73" y="413.666">SW1</tspan>
  </text>
  <text font-size="12.8" style="fill: #000000;text-anchor:start;font-family:monospace;font-style:normal;font-weight:700" x="890.954" y="413.092">
    <tspan x="890.954" y="413.092">SW2</tspan>
  </text>
  <text font-size="12.8" style="fill: #000000;text-anchor:start;font-family:monospace;font-style:normal;font-weight:700" x="810.786" y="154.092">
    <tspan x="810.786" y="154.092">SW-EXT</tspan>
  </text>
  <text font-size="12.8" style="fill: #000000;text-anchor:start;font-family:monospace;font-style:normal;font-weight:700" x="727.286" y="373.78">
    <tspan x="727.286" y="373.78">LR0</tspan>
  </text>
  <text font-size="11.334" style="fill: #000000;text-anchor:start;font-family:monospace;font-style:normal;font-weight:700" x="694.286" y="178.279">
    <tspan x="694.286" y="178.279">ext-localnet</tspan>
  </text>
  <text font-size="11.334" style="fill: #000000;text-anchor:start;font-family:monospace;font-style:normal;font-weight:700" x="686.31" y="305.978">
    <tspan x="686.31" y="305.978">lr0-ext</tspan>
  </text>
  <text font-size="11.334" style="fill: #000000;text-anchor:start;font-family:monospace;font-style:normal;font-weight:700" x="540.706" y="471.68">
    <tspan x="540.706" y="471.68">sw1-port0</tspan>
  </text>
  <text font-size="11.334" style="fill: #000000;text-anchor:start;font-family:monospace;font-style:normal;font-weight:700" x="435.456" y="441.18">
    <tspan x="435.456" y="441.18">sw1-port1</tspan>
  </text>
  <text font-size="11.334" style="fill: #000000;text-anchor:start;font-family:monospace;font-style:normal;font-weight:700" x="964.206" y="419.93">
    <tspan x="964.206" y="419.93">sw2-port3</tspan>
  </text>
  <text font-size="11.334" style="fill: #000000;text-anchor:start;font-family:monospace;font-style:normal;font-weight:700" x="836.012" y="474.116">
    <tspan x="836.012" y="474.116">sw2-port4</tspan>
  </text>
  <text font-size="11.334" style="fill: #000000;text-anchor:start;font-family:monospace;font-style:normal;font-weight:700" x="821.312" y="222.566">
    <tspan x="821.312" y="222.566">ext-lr0</tspan>
  </text>
  <text font-size="11.334" style="fill: #000000;text-anchor:start;font-family:monospace;font-style:normal;font-weight:700" x="672.9" y="356.65">
    <tspan x="672.9" y="356.65">lrp1</tspan>
  </text>
  <text font-size="11.334" style="fill: #000000;text-anchor:start;font-family:monospace;font-style:normal;font-weight:700" x="774.9" y="335.65">
    <tspan x="774.9" y="335.65">lrp2</tspan>
  </text>
  <text font-size="12.8" style="fill: #000000;text-anchor:start;font-family:monospace;font-style:normal;font-weight:700" x="409.9" y="531">
    <tspan x="409.9" y="531">PC1</tspan>
  </text>
  <text font-size="12.8" style="fill: #000000;text-anchor:start;font-family:monospace;font-style:normal;font-weight:700" x="186.9" y="261">
    <tspan x="186.9" y="261">PC-EXT</tspan>
  </text>
</svg>
